<?xml version="1.0" encoding="UTF-8" standalone="no"?>
<svg
   xmlns:dc="http://purl.org/dc/elements/1.1/"
   xmlns:cc="http://creativecommons.org/ns#"
   xmlns:rdf="http://www.w3.org/1999/02/22-rdf-syntax-ns#"
   xmlns:svg="http://www.w3.org/2000/svg"
   xmlns="http://www.w3.org/2000/svg"
   viewBox="0 0 368 165.33333"
   height="165.33333"
   width="368"
   xml:space="preserve"
   id="svg2"
   version="1.1"><metadata
     id="metadata8"><rdf:RDF><cc:Work
         rdf:about=""><dc:format>image/svg+xml</dc:format><dc:type
           rdf:resource="http://purl.org/dc/dcmitype/StillImage" /></cc:Work></rdf:RDF></metadata><defs
     id="defs6"><clipPath
       id="clipPath18"
       clipPathUnits="userSpaceOnUse"><path
         id="path16"
         d="M 0,124 H 276 V 0 H 0 Z" /></clipPath><clipPath
       id="clipPath226"
       clipPathUnits="userSpaceOnUse"><path
         id="path224"
         d="m 196.608,25.716 h 52.801 v 52.116 h -52.801 z" /></clipPath><clipPath
       id="clipPath238"
       clipPathUnits="userSpaceOnUse"><path
         id="path236"
         d="M 0,124 H 276 V 0 H 0 Z" /></clipPath></defs><g
     transform="matrix(1.3333333,0,0,-1.3333333,0,165.33333)"
     id="g10"><g
       id="g12"><g
         clip-path="url(#clipPath18)"
         id="g14"><g
           transform="translate(45.0449,74.5488)"
           id="g20"><path
             id="path22"
             style="fill:#231f20;fill-opacity:1;fill-rule:nonzero;stroke:none"
             d="m 0,0 v -0.012 h -0.014 v -35.7 H 0 v -0.035 h 25.506 v 8.088 c -0.38,-0.079 -0.8,-0.118 -1.324,-0.177 -0.49,-0.024 -1.02,-0.049 -1.55,-0.069 -0.529,-0.02 -1.062,-0.038 -1.561,-0.049 -0.499,-0.012 -10.88,-0.017 -10.88,-0.017 0.023,0.686 0.035,1.379 0.04,2.071 0.011,1.382 -0.008,2.755 -0.057,4.121 l -0.003,0.003 0.036,-0.005 h 15.246 v 7.775 H 10.207 l -0.036,-10e-4 h 0.003 c 0.049,1.368 0.068,2.741 0.057,4.12 -0.005,0.69 -0.017,1.38 -0.04,2.213 H 28.07 v -28.038 c 5.8,0 10.504,4.703 10.504,10.503 v 17.53 -10e-4 0.006 h 4.516 c 4.231,0 7.655,3.445 7.655,7.674 L 0,0" /></g><g
           transform="translate(31.9751,64.0552)"
           id="g24"><path
             id="path26"
             style="fill:#231f20;fill-opacity:1;fill-rule:nonzero;stroke:none"
             d="M 0,0 V -25.248 H 10.501 V 10.501 C 4.703,10.501 0,5.8 0,0" /></g><g
           transform="translate(89.106,47.9312)"
           id="g28"><path
             id="path30"
             style="fill:#595a5c;fill-opacity:1;fill-rule:nonzero;stroke:none"
             d="M 0,0 H 5.969 V -0.654 H 3.383 V -8.722 H 2.586 v 8.068 l -2.586,0 z" /></g><g
           transform="translate(96.4409,39.209)"
           id="g32"><path
             id="path34"
             style="fill:#595a5c;fill-opacity:1;fill-rule:nonzero;stroke:none"
             d="M 0,0 V 8.722 H 0.723 V 5.291 c 0.678,0.7 1.233,1.113 2.152,1.113 1.304,0 1.861,-0.751 1.861,-2.115 V 0 H 4.011 v 4.215 c 0,1.039 -0.314,1.607 -1.282,1.607 -0.773,0 -1.206,-0.471 -2.006,-1.196 L 0.723,0 H 0" /></g><g
           transform="translate(106.9771,42.9053)"
           id="g36"><path
             id="path38"
             style="fill:#595a5c;fill-opacity:1;fill-rule:nonzero;stroke:none"
             d="M 0,0 C -0.145,1.293 -0.713,2.114 -1.812,2.126 -3.093,2.138 -3.636,0.832 -3.649,0 Z m -3.649,-0.581 c 0,-1.423 0.592,-2.657 2.019,-2.657 0.808,0 1.207,0.279 1.834,1.27 l 0.595,-0.315 c -0.679,-1.113 -1.294,-1.536 -2.49,-1.536 -1.644,0 -2.684,1.052 -2.684,3.263 0,1.946 0.992,3.264 2.586,3.264 1.705,0 2.515,-1.342 2.515,-3.289 h -4.375" /></g><path
           id="path40"
           style="fill:#595a5c;fill-opacity:1;fill-rule:nonzero;stroke:none"
           d="m 112.85,39.209 h 0.797 v 8.722 h -0.797 z" /><g
           transform="translate(115.9199,39.209)"
           id="g42"><path
             id="path44"
             style="fill:#595a5c;fill-opacity:1;fill-rule:nonzero;stroke:none"
             d="M 0,0 V 6.282 H 0.725 V 5.291 c 0.675,0.7 1.229,1.113 2.149,1.113 1.305,0 1.861,-0.751 1.861,-2.115 V 0 H 4.011 v 4.215 c 0,1.039 -0.315,1.607 -1.282,1.607 -0.775,0 -1.207,-0.471 -2.004,-1.196 L 0.725,0 H 0" /></g><g
           transform="translate(122.48,40.73)"
           id="g46"><path
             id="path48"
             style="fill:#595a5c;fill-opacity:1;fill-rule:nonzero;stroke:none"
             d="m 0,0 c 0.593,-0.843 1.124,-1.063 1.944,-1.063 0.797,0 1.403,0.52 1.403,1.196 0,1.825 -3.696,0.798 -3.696,3.033 0,1.184 0.93,1.717 1.991,1.717 1.052,0 1.717,-0.412 2.163,-1.137 L 3.249,3.358 c -0.421,0.58 -0.88,0.943 -1.63,0.943 -0.701,0 -1.244,-0.336 -1.244,-1.098 0,-1.535 3.697,-0.629 3.697,-3.07 0,-1.122 -1.039,-1.777 -2.174,-1.777 -0.968,0 -1.838,0.389 -2.429,1.271 L 0,0" /></g><g
           transform="translate(128.0742,45.4912)"
           id="g50"><path
             id="path52"
             style="fill:#595a5c;fill-opacity:1;fill-rule:nonzero;stroke:none"
             d="M 0,0 V 2.052 H 0.726 V 0 H 2.104 V -0.58 H 0.726 v -4.604 c 0,-0.421 0.194,-0.64 0.638,-0.64 0.244,0 0.51,0.062 0.74,0.134 V -6.295 C 1.86,-6.331 1.608,-6.405 1.364,-6.405 0.34,-6.405 0,-6.065 0,-5.304 V -0.58 H -0.942 V 0 L 0,0" /></g><path
           id="path54"
           style="fill:#595a5c;fill-opacity:1;fill-rule:nonzero;stroke:none"
           d="m 132.076,39.209 h -0.726 v 6.282 h 0.726 z m -0.726,8.722 h 0.726 v -1.064 h -0.726 z" /><g
           transform="translate(134.1172,45.4912)"
           id="g56"><path
             id="path58"
             style="fill:#595a5c;fill-opacity:1;fill-rule:nonzero;stroke:none"
             d="M 0,0 V 2.052 H 0.725 V 0 H 2.101 V -0.58 H 0.725 v -4.604 c 0,-0.421 0.192,-0.64 0.64,-0.64 0.241,0 0.508,0.062 0.736,0.134 V -6.295 C 1.86,-6.331 1.606,-6.405 1.365,-6.405 0.337,-6.405 0,-6.065 0,-5.304 V -0.58 H -0.944 V 0 L 0,0" /></g><g
           transform="translate(142.1392,45.4912)"
           id="g60"><path
             id="path62"
             style="fill:#595a5c;fill-opacity:1;fill-rule:nonzero;stroke:none"
             d="m 0,0 v -6.282 h -0.725 v 0.99 c -0.677,-0.702 -1.232,-1.113 -2.15,-1.113 -1.305,0 -1.861,0.751 -1.861,2.116 V 0 h 0.725 v -4.218 c 0,-1.038 0.314,-1.606 1.282,-1.606 0.772,0 1.206,0.471 2.004,1.196 l 0,4.628 H 0" /></g><g
           transform="translate(144.1919,45.4912)"
           id="g64"><path
             id="path66"
             style="fill:#595a5c;fill-opacity:1;fill-rule:nonzero;stroke:none"
             d="M 0,0 V 2.052 H 0.727 V 0 H 2.104 V -0.58 H 0.727 v -4.604 c 0,-0.421 0.193,-0.64 0.64,-0.64 0.241,0 0.507,0.062 0.737,0.134 V -6.295 C 1.86,-6.331 1.608,-6.405 1.367,-6.405 0.34,-6.405 0,-6.065 0,-5.304 V -0.58 H -0.941 V 0 L 0,0" /></g><path
           id="path68"
           style="fill:#595a5c;fill-opacity:1;fill-rule:nonzero;stroke:none"
           d="m 148.193,39.209 h -0.725 v 6.282 h 0.725 z m -0.726,8.722 h 0.725 v -1.064 h -0.725 z" /><g
           transform="translate(150.3311,42.3491)"
           id="g70"><path
             id="path72"
             style="fill:#595a5c;fill-opacity:1;fill-rule:nonzero;stroke:none"
             d="m 0,0 c 0,-1.703 0.567,-2.682 1.861,-2.682 1.293,0 1.86,0.979 1.86,2.682 0,1.705 -0.567,2.682 -1.86,2.682 C 0.567,2.682 0,1.705 0,0 m 4.446,0 c 0,-1.703 -0.629,-3.263 -2.585,-3.263 -1.956,0 -2.587,1.56 -2.587,3.263 0,1.705 0.631,3.264 2.587,3.264 1.956,0 2.585,-1.559 2.585,-3.264" /></g><g
           transform="translate(156.2061,39.209)"
           id="g74"><path
             id="path76"
             style="fill:#595a5c;fill-opacity:1;fill-rule:nonzero;stroke:none"
             d="M 0,0 V 6.282 H 0.723 V 5.291 c 0.676,0.7 1.234,1.113 2.15,1.113 1.306,0 1.861,-0.751 1.861,-2.115 V 0 H 4.01 V 4.215 C 4.01,5.254 3.694,5.822 2.729,5.822 1.957,5.822 1.52,5.351 0.723,4.626 V 0 H 0" /></g><g
           transform="translate(166.4531,42.3491)"
           id="g78"><path
             id="path80"
             style="fill:#595a5c;fill-opacity:1;fill-rule:nonzero;stroke:none"
             d="M 0,0 C 0,-1.703 0.566,-2.682 1.859,-2.682 3.15,-2.682 3.718,-1.703 3.718,0 3.718,1.705 3.15,2.682 1.859,2.682 0.566,2.682 0,1.705 0,0 m 4.443,0 c 0,-1.703 -0.627,-3.263 -2.584,-3.263 -1.959,0 -2.586,1.56 -2.586,3.263 0,1.705 0.627,3.264 2.586,3.264 1.957,0 2.584,-1.559 2.584,-3.264" /></g><g
           transform="translate(173.2168,44.9111)"
           id="g82"><path
             id="path84"
             style="fill:#595a5c;fill-opacity:1;fill-rule:nonzero;stroke:none"
             d="M 0,0 V -5.702 H -0.724 V 0 h -1.041 v 0.58 h 1.041 v 0.894 c 0,1.086 0.434,1.666 1.508,1.666 0.266,0 0.52,-0.049 0.787,-0.097 V 2.441 C 1.34,2.512 1.124,2.56 0.858,2.56 0.289,2.56 0,2.283 0,1.558 V 0.58 H 1.279 V 0 H 0" /></g><g
           transform="translate(31.9751,24.709)"
           id="g86"><path
             id="path88"
             style="fill:#595a5c;fill-opacity:1;fill-rule:nonzero;stroke:none"
             d="M 0,0 V 8.721 H 4.978 V 8.069 H 0.798 V 4.856 H 3.804 V 4.203 H 0.798 V 0.652 H 5.207 V 0 Z" /></g><g
           transform="translate(38.4771,24.709)"
           id="g90"><path
             id="path92"
             style="fill:#595a5c;fill-opacity:1;fill-rule:nonzero;stroke:none"
             d="M 0,0 V 6.282 H 0.725 V 5.29 c 0.676,0.701 1.231,1.113 2.15,1.113 1.306,0 1.861,-0.749 1.861,-2.115 V 0 H 4.01 V 4.216 C 4.01,5.255 3.695,5.822 2.73,5.822 1.956,5.822 1.521,5.351 0.725,4.628 V 0 H 0" /></g><g
           transform="translate(47.1021,27.354)"
           id="g94"><path
             id="path96"
             style="fill:#595a5c;fill-opacity:1;fill-rule:nonzero;stroke:none"
             d="M 0,0 C 1.015,0 1.632,0.482 1.632,1.571 1.632,2.67 1.015,3.177 0,3.177 -1.014,3.177 -1.63,2.549 -1.63,1.571 -1.63,0.482 -0.881,0 0,0 m -1.933,-3.249 c 0,-0.615 0.606,-1.039 1.909,-1.039 1.571,0 2.248,0.424 2.248,1.074 0,0.52 -0.412,1.028 -2.296,1.028 -1.424,0 -1.861,-0.52 -1.861,-1.063 M 2.912,3.226 C 2.586,3.226 2.164,3.188 1.909,2.934 2.188,2.597 2.356,2.223 2.356,1.619 c 0,-1.547 -1.098,-2.198 -2.428,-2.198 -0.398,0 -0.701,0.083 -1.014,0.192 -0.4,-0.144 -0.58,-0.373 -0.58,-0.603 0,-0.363 0.242,-0.545 1.944,-0.545 1.886,0 2.67,-0.603 2.67,-1.629 0,-0.919 -0.7,-1.705 -2.864,-1.705 -2.162,0 -2.741,0.738 -2.741,1.487 0,0.546 0.217,1.003 1.1,1.327 v 0.025 c -0.46,0.098 -0.834,0.291 -0.834,0.822 0,0.531 0.483,0.967 0.941,1.064 -0.567,0.386 -0.906,0.99 -0.906,1.642 0,1.377 0.968,2.26 2.49,2.26 0.604,0 1.063,-0.169 1.462,-0.437 0.362,0.364 0.821,0.557 1.316,0.557 V 3.226" /></g><path
           id="path98"
           style="fill:#595a5c;fill-opacity:1;fill-rule:nonzero;stroke:none"
           d="m 51.948,24.708 h -0.726 v 6.282 h 0.726 z m -0.725,8.722 h 0.725 v -1.064 h -0.725 z" /><g
           transform="translate(53.9189,24.709)"
           id="g100"><path
             id="path102"
             style="fill:#595a5c;fill-opacity:1;fill-rule:nonzero;stroke:none"
             d="M 0,0 V 6.282 H 0.724 V 5.29 c 0.676,0.701 1.233,1.113 2.151,1.113 1.304,0 1.86,-0.749 1.86,-2.115 V 0 H 4.01 V 4.216 C 4.01,5.255 3.696,5.822 2.73,5.822 1.957,5.822 1.522,5.351 0.724,4.628 V 0 H 0" /></g><g
           transform="translate(64.4531,28.4038)"
           id="g104"><path
             id="path106"
             style="fill:#595a5c;fill-opacity:1;fill-rule:nonzero;stroke:none"
             d="M 0,0 C -0.144,1.293 -0.712,2.114 -1.812,2.127 -3.092,2.138 -3.635,0.834 -3.648,0 Z m -3.648,-0.578 c 0,-1.427 0.592,-2.658 2.018,-2.658 0.809,0 1.207,0.279 1.836,1.268 l 0.592,-0.315 c -0.676,-1.11 -1.293,-1.533 -2.488,-1.533 -1.643,0 -2.683,1.051 -2.683,3.262 0,1.945 0.991,3.262 2.585,3.262 1.704,0 2.514,-1.342 2.514,-3.286 h -4.374" /></g><g
           transform="translate(70.4951,28.4038)"
           id="g108"><path
             id="path110"
             style="fill:#595a5c;fill-opacity:1;fill-rule:nonzero;stroke:none"
             d="M 0,0 C -0.145,1.293 -0.713,2.114 -1.812,2.127 -3.093,2.138 -3.636,0.834 -3.648,0 Z m -3.648,-0.578 c 0,-1.427 0.591,-2.658 2.016,-2.658 0.81,0 1.21,0.279 1.838,1.268 l 0.591,-0.315 c -0.676,-1.11 -1.291,-1.533 -2.488,-1.533 -1.644,0 -2.682,1.051 -2.682,3.262 0,1.945 0.991,3.262 2.585,3.262 1.702,0 2.512,-1.342 2.512,-3.286 h -4.372" /></g><g
           transform="translate(72.6709,24.709)"
           id="g112"><path
             id="path114"
             style="fill:#595a5c;fill-opacity:1;fill-rule:nonzero;stroke:none"
             d="M 0,0 V 6.282 H 0.724 V 5.086 H 0.749 C 1.087,5.86 1.763,6.403 2.56,6.403 H 2.887 V 5.701 H 2.56 C 1.763,5.701 0.724,4.759 0.724,3.551 V 0 H 0" /></g><path
           id="path116"
           style="fill:#595a5c;fill-opacity:1;fill-rule:nonzero;stroke:none"
           d="M 77.455,24.708 H 76.73 v 6.282 h 0.725 z m -0.724,8.722 h 0.725 v -1.064 h -0.725 z" /><g
           transform="translate(79.4258,24.709)"
           id="g118"><path
             id="path120"
             style="fill:#595a5c;fill-opacity:1;fill-rule:nonzero;stroke:none"
             d="M 0,0 V 6.282 H 0.724 V 5.29 c 0.677,0.701 1.233,1.113 2.151,1.113 1.305,0 1.86,-0.749 1.86,-2.115 V 0 H 4.01 V 4.216 C 4.01,5.255 3.697,5.822 2.73,5.822 1.957,5.822 1.522,5.351 0.724,4.628 V 0 H 0" /></g><g
           transform="translate(88.0532,27.355)"
           id="g122"><path
             id="path124"
             style="fill:#595a5c;fill-opacity:1;fill-rule:nonzero;stroke:none"
             d="M 0,0 C 1.014,0 1.632,0.482 1.632,1.57 1.632,2.669 1.014,3.176 0,3.176 -1.015,3.176 -1.631,2.548 -1.631,1.57 -1.631,0.482 -0.882,0 0,0 m -1.934,-3.251 c 0,-0.614 0.604,-1.038 1.91,-1.038 1.57,0 2.246,0.424 2.246,1.074 0,0.52 -0.41,1.028 -2.296,1.028 -1.425,0 -1.86,-0.52 -1.86,-1.064 M 2.911,3.225 C 2.585,3.225 2.163,3.187 1.908,2.933 2.186,2.596 2.355,2.222 2.355,1.618 c 0,-1.547 -1.1,-2.198 -2.429,-2.198 -0.398,0 -0.7,0.083 -1.014,0.192 -0.398,-0.144 -0.58,-0.373 -0.58,-0.603 0,-0.363 0.242,-0.545 1.945,-0.545 1.886,0 2.67,-0.603 2.67,-1.629 0,-0.919 -0.701,-1.705 -2.863,-1.705 -2.163,0 -2.742,0.738 -2.742,1.487 0,0.546 0.216,1.003 1.099,1.327 v 0.025 c -0.459,0.098 -0.834,0.291 -0.834,0.823 0,0.53 0.484,0.966 0.941,1.063 -0.566,0.386 -0.905,0.99 -0.905,1.642 0,1.377 0.968,2.26 2.489,2.26 0.604,0 1.063,-0.169 1.462,-0.437 0.363,0.364 0.821,0.557 1.317,0.557 V 3.225" /></g><g
           transform="translate(98.854,28.2598)"
           id="g126"><path
             id="path128"
             style="fill:#595a5c;fill-opacity:1;fill-rule:nonzero;stroke:none"
             d="m 0,0 c -2.875,-0.628 -3.262,-1.22 -3.262,-2.016 0,-0.689 0.471,-1.076 1.123,-1.076 0.677,0 1.511,0.398 2.139,1.039 z M 0.121,-3.552 0.024,-2.79 c -0.749,-0.593 -1.317,-0.881 -2.282,-0.881 -0.98,0 -1.729,0.603 -1.729,1.642 0,1.716 1.403,2.029 4.023,2.61 v 0.434 c 0,0.834 -0.362,1.256 -1.438,1.256 -0.748,0 -1.365,-0.411 -1.823,-1.135 l -0.484,0.291 c 0.544,1.014 1.317,1.425 2.332,1.425 1.425,0 2.101,-0.581 2.101,-1.969 v -3.287 c 0,-0.314 0.026,-0.724 0.097,-1.148 h -0.7" /></g><g
           transform="translate(101.5859,24.709)"
           id="g130"><path
             id="path132"
             style="fill:#595a5c;fill-opacity:1;fill-rule:nonzero;stroke:none"
             d="M 0,0 V 6.282 H 0.724 V 5.29 c 0.676,0.701 1.232,1.113 2.152,1.113 1.303,0 1.86,-0.749 1.86,-2.115 L 4.736,0 H 4.01 V 4.216 C 4.01,5.255 3.696,5.822 2.73,5.822 1.956,5.822 1.523,5.351 0.724,4.628 V 0 H 0" /></g><g
           transform="translate(112.1938,29.4082)"
           id="g134"><path
             id="path136"
             style="fill:#595a5c;fill-opacity:1;fill-rule:nonzero;stroke:none"
             d="m 0,0 c -0.242,0.422 -1.063,1.122 -1.775,1.122 -1.304,0 -1.947,-1.148 -1.947,-2.777 0,-1.449 0.581,-2.585 1.838,-2.585 0.893,0 1.413,0.495 1.884,1.147 z M 0.724,-4.699 H 0.217 l -0.12,0.822 c -0.459,-0.655 -1.16,-0.942 -2.016,-0.942 -1.633,0 -2.528,1.158 -2.528,3.297 0,1.847 1.017,3.226 2.477,3.226 0.848,0 1.354,-0.291 1.97,-0.943 v 3.261 h 0.724 v -8.721" /></g><g
           transform="translate(117.7651,33.4302)"
           id="g138"><path
             id="path140"
             style="fill:#595a5c;fill-opacity:1;fill-rule:nonzero;stroke:none"
             d="M 0,0 H 5.968 V -0.652 H 3.382 v -8.07 H 2.586 v 8.07 l -2.586,0 z" /></g><g
           transform="translate(127.8071,28.4038)"
           id="g142"><path
             id="path144"
             style="fill:#595a5c;fill-opacity:1;fill-rule:nonzero;stroke:none"
             d="M 0,0 C -0.143,1.293 -0.712,2.114 -1.812,2.127 -3.091,2.138 -3.634,0.834 -3.648,0 Z m -3.648,-0.578 c 0,-1.427 0.591,-2.658 2.019,-2.658 0.808,0 1.207,0.279 1.835,1.268 l 0.591,-0.315 c -0.674,-1.11 -1.291,-1.533 -2.486,-1.533 -1.644,0 -2.684,1.051 -2.684,3.262 0,1.945 0.99,3.262 2.585,3.262 1.705,0 2.514,-1.342 2.514,-3.286 h -4.374" /></g><g
           transform="translate(133.814,29.2271)"
           id="g146"><path
             id="path148"
             style="fill:#595a5c;fill-opacity:1;fill-rule:nonzero;stroke:none"
             d="m 0,0 c -0.327,0.724 -0.798,1.304 -1.632,1.304 -1.182,0 -1.98,-0.736 -1.98,-2.682 0,-1.605 0.724,-2.681 1.98,-2.681 0.895,0 1.378,0.495 1.885,1.304 l 0.58,-0.277 c -0.53,-0.896 -1.269,-1.606 -2.465,-1.606 -1.762,0 -2.705,1.364 -2.705,3.26 0,2.163 1.087,3.263 2.705,3.263 1.184,0 1.922,-0.665 2.296,-1.704 L 0,0" /></g><g
           transform="translate(136.0742,24.709)"
           id="g150"><path
             id="path152"
             style="fill:#595a5c;fill-opacity:1;fill-rule:nonzero;stroke:none"
             d="M 0,0 V 8.721 H 0.724 V 5.29 c 0.678,0.701 1.234,1.113 2.15,1.113 1.306,0 1.861,-0.749 1.861,-2.115 V 0 H 4.011 v 4.216 c 0,1.039 -0.316,1.606 -1.282,1.606 -0.771,0 -1.206,-0.471 -2.005,-1.194 L 0.724,0 H 0" /></g><g
           transform="translate(142.793,24.709)"
           id="g154"><path
             id="path156"
             style="fill:#595a5c;fill-opacity:1;fill-rule:nonzero;stroke:none"
             d="M 0,0 V 6.282 H 0.725 V 5.29 c 0.676,0.701 1.232,1.113 2.15,1.113 1.305,0 1.859,-0.749 1.859,-2.115 V 0 H 4.01 V 4.216 C 4.01,5.255 3.697,5.822 2.729,5.822 1.957,5.822 1.522,5.351 0.725,4.628 V 0 H 0" /></g><g
           transform="translate(149.6792,27.8501)"
           id="g158"><path
             id="path160"
             style="fill:#595a5c;fill-opacity:1;fill-rule:nonzero;stroke:none"
             d="m 0,0 c 0,-1.703 0.568,-2.682 1.861,-2.682 1.291,0 1.86,0.979 1.86,2.682 0,1.703 -0.569,2.681 -1.86,2.681 C 0.568,2.681 0,1.703 0,0 m 4.446,0 c 0,-1.703 -0.628,-3.262 -2.585,-3.262 -1.957,0 -2.586,1.559 -2.586,3.262 0,1.703 0.629,3.262 2.586,3.262 1.957,0 2.585,-1.559 2.585,-3.262" /></g><path
           id="path162"
           style="fill:#595a5c;fill-opacity:1;fill-rule:nonzero;stroke:none"
           d="m 155.54,24.708 h 0.725 v 8.722 h -0.725 z" /><g
           transform="translate(158.4028,27.8501)"
           id="g164"><path
             id="path166"
             style="fill:#595a5c;fill-opacity:1;fill-rule:nonzero;stroke:none"
             d="m 0,0 c 0,-1.703 0.566,-2.682 1.859,-2.682 1.294,0 1.864,0.979 1.864,2.682 0,1.703 -0.57,2.681 -1.864,2.681 C 0.566,2.681 0,1.703 0,0 m 4.446,0 c 0,-1.703 -0.627,-3.262 -2.587,-3.262 -1.955,0 -2.584,1.559 -2.584,3.262 0,1.703 0.629,3.262 2.584,3.262 1.96,0 2.587,-1.559 2.587,-3.262" /></g><g
           transform="translate(166.1821,27.355)"
           id="g168"><path
             id="path170"
             style="fill:#595a5c;fill-opacity:1;fill-rule:nonzero;stroke:none"
             d="M 0,0 C 1.018,0 1.634,0.482 1.634,1.57 1.634,2.669 1.018,3.176 0,3.176 -1.014,3.176 -1.629,2.548 -1.629,1.57 -1.629,0.482 -0.88,0 0,0 m -1.93,-3.251 c 0,-0.614 0.605,-1.038 1.907,-1.038 1.573,0 2.249,0.424 2.249,1.074 0,0.52 -0.412,1.028 -2.295,1.028 -1.425,0 -1.861,-0.52 -1.861,-1.064 M 2.914,3.225 C 2.588,3.225 2.164,3.187 1.912,2.933 2.19,2.596 2.358,2.222 2.358,1.618 c 0,-1.547 -1.1,-2.198 -2.427,-2.198 -0.399,0 -0.702,0.083 -1.017,0.192 -0.397,-0.144 -0.579,-0.373 -0.579,-0.603 0,-0.363 0.242,-0.545 1.944,-0.545 1.885,0 2.671,-0.603 2.671,-1.629 0,-0.919 -0.701,-1.705 -2.862,-1.705 -2.164,0 -2.743,0.738 -2.743,1.487 0,0.546 0.218,1.003 1.099,1.327 v 0.025 c -0.46,0.098 -0.833,0.291 -0.833,0.823 0,0.53 0.483,0.966 0.942,1.063 -0.569,0.386 -0.907,0.99 -0.907,1.642 0,1.377 0.966,2.26 2.489,2.26 0.605,0 1.063,-0.169 1.462,-0.437 0.362,0.364 0.822,0.557 1.317,0.557 V 3.225" /></g><g
           transform="translate(171.9971,25.8809)"
           id="g172"><path
             id="path174"
             style="fill:#595a5c;fill-opacity:1;fill-rule:nonzero;stroke:none"
             d="M 0,0 H 0.023 L 1.774,5.11 H 2.549 L 0.204,-1.619 c -0.422,-1.232 -0.87,-1.778 -2.005,-1.778 -0.314,0 -0.509,0.025 -0.675,0.074 v 0.594 c 0.217,-0.026 0.445,-0.086 0.723,-0.086 0.509,0 1.065,0.445 1.415,1.738 L -2.525,5.11 h 0.797 L 0,0" /></g><path
           id="path176"
           style="fill:#231f20;fill-opacity:1;fill-rule:nonzero;stroke:none"
           d="m 103.276,57.888 h 71.009 v 16.808 h -71.009 z" /><g
           transform="translate(113.166,67.958)"
           id="g178"><path
             id="path180"
             style="fill:#ffffff;fill-opacity:1;fill-rule:nonzero;stroke:none"
             d="m 0,0 v 0.7 c 0,0.762 -0.35,1.087 -0.75,1.087 -0.625,0 -0.825,-0.325 -0.825,-0.999 v -4.575 c 0,-0.674 0.2,-0.999 0.825,-0.999 0.562,0 0.75,0.325 0.75,0.912 v 1.087 h 1.55 v -1.037 c 0,-1.275 -0.75,-2.312 -2.3,-2.312 -1.625,0 -2.374,1.037 -2.374,2.312 v 4.649 c 0,1.274 0.749,2.312 2.374,2.312 1.55,0 2.3,-1.125 2.3,-2.475 L 1.55,0 H 0" /></g><g
           transform="translate(119.1528,66.5459)"
           id="g182"><path
             id="path184"
             style="fill:#ffffff;fill-opacity:1;fill-rule:nonzero;stroke:none"
             d="M 0,0 C 0,0.775 -0.275,1.099 -0.775,1.099 -1.275,1.099 -1.55,0.775 -1.55,0 v -2.474 c 0,-0.776 0.275,-1.1 0.775,-1.1 0.5,0 0.775,0.324 0.775,1.1 z m -2.949,-0.25 c 0,1.475 0.574,2.5 2.174,2.5 1.599,0 2.174,-1.025 2.174,-2.5 v -1.974 c 0,-1.475 -0.575,-2.5 -2.174,-2.5 -1.6,0 -2.174,1.025 -2.174,2.5 v 1.974" /></g><g
           transform="translate(124.6768,61.9473)"
           id="g186"><path
             id="path188"
             style="fill:#ffffff;fill-opacity:1;fill-rule:nonzero;stroke:none"
             d="m 0,0 v 5.211 c 0,0.338 -0.213,0.487 -0.488,0.487 -0.3,0 -0.575,-0.187 -0.899,-0.424 V 0 h -1.4 v 6.724 h 1.324 V 6.049 c 0.588,0.499 0.888,0.799 1.55,0.799 0.7,0 0.925,-0.249 1.225,-0.799 0.675,0.649 1.049,0.799 1.562,0.799 0.875,0 1.312,-0.537 1.312,-1.412 V 0 h -1.4 v 5.211 c 0,0.338 -0.224,0.487 -0.499,0.487 -0.3,0 -0.575,-0.187 -0.888,-0.424 L 1.399,0 H 0" /></g><g
           transform="translate(133.0762,61.9473)"
           id="g190"><path
             id="path192"
             style="fill:#ffffff;fill-opacity:1;fill-rule:nonzero;stroke:none"
             d="m 0,0 v 5.211 c 0,0.338 -0.213,0.487 -0.488,0.487 -0.3,0 -0.575,-0.187 -0.899,-0.424 V 0 h -1.4 v 6.724 h 1.324 V 6.049 c 0.588,0.499 0.888,0.799 1.551,0.799 0.7,0 0.924,-0.249 1.224,-0.799 0.675,0.649 1.05,0.799 1.562,0.799 0.875,0 1.313,-0.537 1.313,-1.412 V 0 h -1.4 v 5.211 c 0,0.338 -0.225,0.487 -0.5,0.487 -0.3,0 -0.575,-0.187 -0.888,-0.424 L 1.399,0 H 0" /></g><g
           transform="translate(142.8872,68.6699)"
           id="g194"><path
             id="path196"
             style="fill:#ffffff;fill-opacity:1;fill-rule:nonzero;stroke:none"
             d="m 0,0 v -6.723 h -1.325 v 0.675 c -0.587,-0.5 -0.888,-0.8 -1.699,-0.8 -0.738,0 -1.175,0.537 -1.175,1.412 V 0 h 1.4 v -5.211 c 0,-0.337 0.199,-0.487 0.499,-0.487 0.3,0 0.575,0.187 0.9,0.425 V 0 H 0" /></g><g
           transform="translate(144.2988,61.9473)"
           id="g198"><path
             id="path200"
             style="fill:#ffffff;fill-opacity:1;fill-rule:nonzero;stroke:none"
             d="M 0,0 V 6.724 H 1.325 V 6.049 c 0.587,0.499 0.887,0.799 1.699,0.799 0.738,0 1.175,-0.537 1.175,-1.412 V 0 H 2.8 V 5.211 C 2.8,5.549 2.599,5.698 2.3,5.698 2,5.698 1.725,5.511 1.4,5.274 V 0 H 0" /></g><path
           id="path202"
           style="fill:#ffffff;fill-opacity:1;fill-rule:nonzero;stroke:none"
           d="m 149.924,68.67 h 1.4 v -6.723 h -1.4 z m 0,2.3 h 1.4 v -1.274 h -1.4 z" /><g
           transform="translate(152.1982,67.521)"
           id="g204"><path
             id="path206"
             style="fill:#ffffff;fill-opacity:1;fill-rule:nonzero;stroke:none"
             d="m 0,0 v 1.15 h 0.775 v 1.812 h 1.4 V 1.15 H 3.112 V 0 H 2.175 v -3.875 c 0,-0.349 0.149,-0.549 0.474,-0.549 h 0.463 v -1.2 c -0.188,-0.05 -0.35,-0.075 -0.7,-0.075 -1.05,0 -1.637,0.487 -1.637,1.512 L 0.775,0 H 0" /></g><path
           id="path208"
           style="fill:#ffffff;fill-opacity:1;fill-rule:nonzero;stroke:none"
           d="m 156.298,68.67 h 1.4 v -6.723 h -1.4 z m 0,2.3 h 1.4 v -1.274 h -1.4 z" /><g
           transform="translate(161.9961,66.1958)"
           id="g210"><path
             id="path212"
             style="fill:#ffffff;fill-opacity:1;fill-rule:nonzero;stroke:none"
             d="m 0,0 v 0.35 c 0,0.774 -0.274,1.1 -0.775,1.1 -0.499,0 -0.774,-0.326 -0.774,-1.1 V 0 Z m 1.4,-1.15 h -2.949 v -0.975 c 0,-0.774 0.275,-1.099 0.774,-1.099 0.501,0 0.775,0.325 0.775,1.099 v 0.15 h 1.4 c -0.025,-1.424 -0.612,-2.399 -2.175,-2.399 -1.599,0 -2.174,1.024 -2.174,2.499 V 0.1 c 0,1.475 0.575,2.499 2.174,2.499 1.6,0 2.175,-1.024 2.175,-2.499 v -1.25" /></g><g
           transform="translate(167.2832,66.8081)"
           id="g214"><path
             id="path216"
             style="fill:#ffffff;fill-opacity:1;fill-rule:nonzero;stroke:none"
             d="m 0,0 c -0.1,0.538 -0.35,0.837 -0.8,0.837 -0.362,0 -0.612,-0.187 -0.612,-0.537 0,-1.05 2.625,-1.475 2.625,-3.474 0,-1.2 -0.825,-1.812 -1.963,-1.812 -1.225,0 -1.924,0.7 -2.137,1.874 l 1.225,0.338 c 0.087,-0.562 0.287,-1.062 0.925,-1.062 0.362,0 0.624,0.212 0.624,0.587 0,1.162 -2.623,1.6 -2.623,3.436 0,1.062 0.824,1.8 1.874,1.8 1.1,0 1.837,-0.738 2.049,-1.787 L 0,0" /></g><path
           id="path218"
           style="fill:#231f20;fill-opacity:1;fill-rule:nonzero;stroke:none"
           d="m 187.682,24.709 h 0.188 v 49.988 h -0.188 z" /></g></g><g
       id="g220"><g
         clip-path="url(#clipPath226)"
         id="g222"><g
           transform="translate(242.0269,77.832)"
           id="g228"><path
             id="path230"
             style="fill:#0093d1;fill-opacity:1;fill-rule:nonzero;stroke:none"
             d="m 0,0 c -4.07,0 -7.38,-3.31 -7.38,-7.379 0,-1.58 0.499,-3.044 1.348,-4.246 l -3.299,-3.298 c -2.456,2.23 -5.717,3.593 -9.288,3.593 -3.78,0 -7.211,-1.526 -9.708,-3.993 l -3.362,2.778 c 0.654,1.101 1.032,2.385 1.032,3.758 0,4.069 -3.312,7.379 -7.382,7.379 -4.069,0 -7.38,-3.31 -7.38,-7.379 0,-4.07 3.311,-7.382 7.38,-7.382 1.934,0 3.695,0.749 5.013,1.97 l 3.303,-2.73 c -1.708,-2.301 -2.72,-5.146 -2.72,-8.225 0,-4.36 2.029,-8.255 5.194,-10.79 l -2.377,-2.702 c -1.187,0.814 -2.621,1.292 -4.165,1.292 -4.07,0 -7.381,-3.312 -7.381,-7.382 0,-4.069 3.311,-7.38 7.381,-7.38 4.069,0 7.381,3.311 7.381,7.38 0,1.76 -0.621,3.377 -1.652,4.647 l 2.582,2.937 c 2.023,-1.161 4.366,-1.826 6.861,-1.826 7.623,0 13.823,6.2 13.823,13.824 0,3.287 -1.152,6.309 -3.075,8.683 l 3.302,3.302 c 1.258,-0.995 2.845,-1.592 4.569,-1.592 4.071,0 7.381,3.312 7.381,7.382 C 7.381,-3.31 4.071,0 0,0 m -33.791,-50.178 c -3.001,0 -5.443,2.442 -5.443,5.442 0,3.002 2.441,5.442 5.443,5.442 3.001,0 5.442,-2.44 5.442,-5.442 0,-3 -2.443,-5.442 -5.442,-5.442 m -4.248,35.949 c -2.999,0 -5.443,2.44 -5.443,5.442 0,2.999 2.442,5.441 5.443,5.441 3.002,0 5.442,-2.442 5.442,-5.441 0,-3.002 -2.44,-5.442 -5.442,-5.442 M -9.62,-31.893 c -0.193,1.367 -0.546,2.737 -1.246,3.016 l -4.379,1.746 -1.026,0.863 c -0.27,0.229 -0.67,0.213 -0.921,-0.037 l -1.426,-1.418 -1.429,1.418 c -0.252,0.25 -0.651,0.266 -0.923,0.038 l -1.025,-0.864 -4.379,-1.746 c -0.7,-0.279 -1.052,-1.649 -1.243,-3.015 -1.411,1.879 -2.248,4.213 -2.248,6.738 0,6.201 5.045,11.246 11.246,11.246 6.202,0 11.246,-5.046 11.246,-11.246 0,-2.526 -0.837,-4.859 -2.247,-6.739 M 0,-12.822 c -3,0 -5.442,2.441 -5.442,5.443 0,2.999 2.442,5.441 5.442,5.441 3.001,0 5.442,-2.442 5.442,-5.441 0,-3.002 -2.441,-5.443 -5.442,-5.443" /></g></g></g><g
       id="g232"><g
         clip-path="url(#clipPath238)"
         id="g234"><g
           transform="translate(223.3481,62.7939)"
           id="g240"><path
             id="path242"
             style="fill:#595a5c;fill-opacity:1;fill-rule:nonzero;stroke:none"
             d="M 0,0 V 0.001 C -0.004,0.001 -0.007,0 -0.012,0 v 0.001 c -10e-4,0 -0.004,0 -0.006,-0.001 -0.002,0.001 -0.003,0.001 -0.005,0.001 L -0.023,0 C -0.027,0 -0.03,0.001 -0.034,0.001 V 0 c -2.7,-0.072 -4.357,-1.6 -4.33,-4.273 0.041,-3.852 1.664,-6.19 4.334,-6.148 v -0.001 h 0.025 v 0.001 c 2.669,-0.042 4.293,2.296 4.334,6.148 C 4.357,-1.6 2.699,-0.072 0,0" /></g><g
           transform="translate(214.3979,46.0708)"
           id="g244"><path
             id="path246"
             style="fill:#595a5c;fill-opacity:1;fill-rule:nonzero;stroke:none"
             d="m 0,0 c 2.039,-2.658 5.248,-4.372 8.857,-4.372 3.701,0 6.98,1.804 9.009,4.579 -0.193,1.325 -0.543,2.632 -1.221,2.902 L 12.302,4.84 11.285,5.696 C 11.017,5.924 10.621,5.907 10.371,5.659 L 8.958,4.253 7.541,5.66 C 7.291,5.907 6.895,5.923 6.626,5.697 L 5.61,4.84 1.267,3.109 C 0.573,2.833 0.224,1.475 0.034,0.12" /></g><g
           transform="translate(42.7358,93.5405)"
           id="g248"><path
             id="path250"
             style="fill:#0092cf;fill-opacity:1;fill-rule:nonzero;stroke:none"
             d="m 0,0 c -0.294,2.554 -1.355,3.629 -3.152,3.629 -2.682,0 -3.86,-1.792 -3.86,-6.832 0,-5.04 1.178,-6.832 3.86,-6.832 2.151,0 3.388,1.12 3.447,4.121 h 2.298 c -0.059,-3.584 -2.121,-5.6 -5.745,-5.6 -3.802,0 -6.159,2.196 -6.159,8.311 0,6.115 2.357,8.31 6.159,8.31 C 0,5.107 1.945,3.45 2.298,0 Z" /></g><g
           transform="translate(49.042,93.8989)"
           id="g252"><path
             id="path254"
             style="fill:#0092cf;fill-opacity:1;fill-rule:nonzero;stroke:none"
             d="M 0,0 2.888,-8.915 H 2.946 L 5.304,0 h 2.18 L 3.978,-11.401 c -0.796,-2.554 -2.269,-4.055 -4.832,-4.055 h -1.091 v 1.344 h 0.649 c 1.679,0 2.769,0.919 3.182,2.553 L -2.18,0 Z" /></g><g
           transform="translate(61.0347,84.4014)"
           id="g256"><path
             id="path258"
             style="fill:#0092cf;fill-opacity:1;fill-rule:nonzero;stroke:none"
             d="m 0,0 c 0.619,-0.47 1.355,-1.03 2.298,-1.03 1.797,0 2.828,1.119 2.828,4.703 0,3.584 -1.119,4.704 -2.887,4.704 C 1.591,8.377 0.648,7.93 0,7.257 Z m -0.354,8.377 h 0.059 c 0.707,0.83 1.768,1.345 3.124,1.345 2.416,0 4.419,-1.568 4.419,-6.049 0,-4.479 -2.003,-6.048 -4.419,-6.048 -1.15,0 -2.122,0.538 -2.829,1.076 V -5.958 H -2.122 V 9.498 h 1.768 z" /></g><g
           transform="translate(71.6416,93.8989)"
           id="g260"><path
             id="path262"
             style="fill:#0092cf;fill-opacity:1;fill-rule:nonzero;stroke:none"
             d="M 0,0 H 2.121 V -1.411 H 2.18 C 3.447,0 4.39,0.224 6.069,0.224 v -1.523 c -1.59,0 -2.798,-0.403 -3.948,-2.061 v -8.288 H 0 Z" /></g><g
           transform="translate(88.8491,82.251)"
           id="g264"><path
             id="path266"
             style="fill:#0092cf;fill-opacity:1;fill-rule:nonzero;stroke:none"
             d="m 0,0 h -2.003 v 1.277 c -1.002,-0.784 -2.476,-1.501 -3.477,-1.501 -2.122,0 -3.359,0.896 -3.359,3.046 v 8.826 h 2.121 V 3.046 c 0,-1.343 0.531,-1.926 1.679,-1.926 1.032,0 1.975,0.538 2.917,1.434 v 9.094 H 0 Z" /></g><g
           transform="translate(99.0439,90.9419)"
           id="g268"><path
             id="path270"
             style="fill:#0092cf;fill-opacity:1;fill-rule:nonzero;stroke:none"
             d="m 0,0 c -0.383,1.008 -0.943,1.837 -2.652,1.837 -1.001,0 -1.709,-0.605 -1.709,-1.389 0,-2.374 6.483,-2.509 6.483,-6.137 0,-1.837 -1.768,-3.226 -4.185,-3.226 -2.769,0 -4.154,1.143 -4.891,3.091 l 1.945,0.314 c 0.442,-1.031 1.238,-2.061 2.799,-2.061 1.149,0 2.21,0.806 2.21,1.77 0,2.688 -6.482,2.733 -6.482,6.159 0,1.524 1.65,2.823 3.978,2.823 2.357,0 3.771,-1.031 4.272,-2.778 z" /></g><g
           transform="translate(113.2168,98.4238)"
           id="g272"><path
             id="path274"
             style="fill:#0092cf;fill-opacity:1;fill-rule:nonzero;stroke:none"
             d="m 0,0 v -14.694 h 6.895 v -1.479 H -2.298 V 0 Z" /></g><g
           transform="translate(126.1519,83.3711)"
           id="g276"><path
             id="path278"
             style="fill:#0092cf;fill-opacity:1;fill-rule:nonzero;stroke:none"
             d="M 0,0 C 1.797,0 2.563,0.851 2.563,4.704 2.563,8.557 1.797,9.408 0,9.408 -1.797,9.408 -2.563,8.557 -2.563,4.704 -2.563,0.851 -1.797,0 0,0 m 0,10.752 c 3.211,0 4.685,-1.837 4.685,-6.048 0,-4.211 -1.474,-6.048 -4.685,-6.048 -3.212,0 -4.685,1.837 -4.685,6.048 0,4.211 1.473,6.048 4.685,6.048" /></g><g
           transform="translate(140.0298,90.4492)"
           id="g280"><path
             id="path282"
             style="fill:#0092cf;fill-opacity:1;fill-rule:nonzero;stroke:none"
             d="m 0,0 c -0.207,1.748 -1.12,2.33 -2.416,2.33 -1.797,0 -2.563,-0.851 -2.563,-4.705 0,-3.852 0.766,-4.703 2.563,-4.703 1.355,0 2.121,0.537 2.475,2.553 H 2.122 C 1.768,-6.81 0.354,-8.422 -2.416,-8.422 c -3.212,0 -4.685,1.837 -4.685,6.047 0,4.212 1.473,6.049 4.685,6.049 2.77,0 4.066,-1.389 4.479,-3.674 z" /></g><g
           transform="translate(151.9927,88.5229)"
           id="g284"><path
             id="path286"
             style="fill:#0092cf;fill-opacity:1;fill-rule:nonzero;stroke:none"
             d="m 0,0 c -1.945,-0.448 -5.098,-1.523 -5.098,-3.36 0,-1.098 0.649,-1.792 2.181,-1.792 1.149,0 2.151,0.605 2.917,1.21 z m -6.807,2.195 c 0.413,1.837 1.828,3.405 4.538,3.405 2.829,0 4.39,-1.254 4.39,-3.315 v -6.496 c 0,-1.031 0.148,-1.792 0.383,-2.061 h -2.21 l -0.265,0.986 c -0.825,-0.628 -2.298,-1.21 -3.27,-1.21 -2.387,0 -3.978,1.165 -3.978,3.002 0,2.867 4.155,4.323 7.219,4.838 v 0.829 c 0,1.277 -0.854,2.083 -2.21,2.083 -1.621,0 -2.416,-1.232 -2.652,-2.285 z" /></g><path
           id="path288"
           style="fill:#0092cf;fill-opacity:1;fill-rule:nonzero;stroke:none"
           d="m 158.652,98.424 h 2.122 V 82.251 h -2.122 z" /><g
           transform="translate(174.7681,98.4238)"
           id="g290"><path
             id="path292"
             style="fill:#0092cf;fill-opacity:1;fill-rule:nonzero;stroke:none"
             d="M 0,0 5.48,-11.917 H 5.54 V 0 H 7.838 V -16.173 H 5.363 l -6.6,14.067 h -0.059 v -14.067 h -2.299 l 0,16.173 z" /></g><g
           transform="translate(192.5361,89.1499)"
           id="g294"><path
             id="path296"
             style="fill:#0092cf;fill-opacity:1;fill-rule:nonzero;stroke:none"
             d="M 0,0 C -0.059,2.509 -0.648,3.629 -2.563,3.629 -4.096,3.629 -5.098,2.778 -5.127,0 Z m -5.127,-1.344 v -0.649 c 0,-2.845 0.855,-3.786 2.858,-3.786 1.621,0 2.298,1.142 2.563,2.195 l 2.004,-0.179 c -0.324,-1.747 -2.063,-3.36 -4.861,-3.36 -3.212,0 -4.686,1.837 -4.686,6.048 0,4.211 1.474,6.048 4.686,6.048 3.241,0 4.684,-2.195 4.684,-5.555 v -0.762 z" /></g><g
           transform="translate(195.9541,93.8989)"
           id="g298"><path
             id="path300"
             style="fill:#0092cf;fill-opacity:1;fill-rule:nonzero;stroke:none"
             d="M 0,0 H 2.063 V 3.897 H 4.184 V 0 H 7.013 V -1.344 H 4.184 v -8.154 c 0,-0.671 0.471,-1.164 1.532,-1.164 0.412,0 0.943,0.134 1.297,0.224 v -1.21 c -0.59,-0.134 -1.12,-0.224 -2.004,-0.224 -2.004,0 -2.946,0.717 -2.946,2.509 v 8.019 l -2.063,0 z" /></g><g
           transform="translate(206.4438,93.8989)"
           id="g302"><path
             id="path304"
             style="fill:#0092cf;fill-opacity:1;fill-rule:nonzero;stroke:none"
             d="M 0,0 2.18,-8.557 H 2.239 L 4.714,0 h 2.004 l 2.533,-8.557 h 0.06 L 11.314,0 h 2.004 L 10.136,-11.648 H 8.368 L 5.716,-2.599 H 5.657 L 3.005,-11.648 H 1.237 L -2.004,0 Z" /></g><g
           transform="translate(226.0093,83.3711)"
           id="g306"><path
             id="path308"
             style="fill:#0092cf;fill-opacity:1;fill-rule:nonzero;stroke:none"
             d="M 0,0 C 1.797,0 2.563,0.851 2.563,4.704 2.563,8.557 1.797,9.408 0,9.408 -1.797,9.408 -2.563,8.557 -2.563,4.704 -2.563,0.851 -1.797,0 0,0 m 0,10.752 c 3.211,0 4.685,-1.837 4.685,-6.048 0,-4.211 -1.474,-6.048 -4.685,-6.048 -3.212,0 -4.685,1.837 -4.685,6.048 0,4.211 1.473,6.048 4.685,6.048" /></g><g
           transform="translate(233.6997,93.8989)"
           id="g310"><path
             id="path312"
             style="fill:#0092cf;fill-opacity:1;fill-rule:nonzero;stroke:none"
             d="M 0,0 H 2.121 V -1.411 H 2.18 C 3.447,0 4.39,0.224 6.07,0.224 v -1.523 c -1.591,0 -2.799,-0.403 -3.949,-2.061 v -8.288 H 0 Z" /></g><g
           transform="translate(241.8911,98.4238)"
           id="g314"><path
             id="path316"
             style="fill:#0092cf;fill-opacity:1;fill-rule:nonzero;stroke:none"
             d="M 0,0 H 2.121 V -10.214 H 2.18 l 4.067,5.689 h 2.18 l -2.829,-3.718 3.536,-7.93 h -2.18 l -2.77,6.317 H 4.125 l -2.004,-2.867 v -3.45 H 0 Z" /></g></g></g></g></svg>