<svg version="1" xmlns="http://www.w3.org/2000/svg" width="1365.333" height="1365.333" viewBox="0 0 1024.000000 1024.000000"><path d="M51 1.3C51 3.1 64.7 30.1 67.6 34c.6.8 2.6 4.2 4.3 7.5C74.4 46.1 96.5 83.1 102 92c.5.8 5.2 8.2 10.3 16.5 19.2 30.8 40.2 61.6 55 80.5.7.9 3.4 4.5 6.1 8 6.7 8.7 32.3 40.7 35.7 44.5 1.4 1.6 7.5 8.6 13.5 15.5s11.3 13 11.9 13.6c.5.6 4.6 5.1 9 9.9 15 16.6 25 27 49.5 51.5 29.3 29.4 49.8 48.7 83 78 4.6 4.1 9 7.9 9.6 8.5 2 1.8 11.8 10.1 19.9 16.9 4.4 3.7 10 8.5 12.5 10.5 2.5 2.1 11.3 9.3 19.5 16 8.3 6.7 15.7 12.7 16.5 13.4 25.8 21.2 90.8 69.3 130 96.2 7.2 4.9 13.8 9.6 14.8 10.3 3.3 2.4 22.8 15.4 36.1 24 12 7.8 21.7 15.2 29 22 1.4 1.4 6 5.4 10 9.1 25.8 22.9 35.4 34.3 44.9 53.1 11.8 23.3 16.4 45.5 14 66.4-1.9 15.7-6.6 27.3-16.6 40.6-5.6 7.6-22.6 25.2-33.7 35.1-3.3 3-9.9 8.8-14.5 13-15.3 13.8-37.4 33.3-44.5 39.4-3.9 3.3-7.2 6.2-7.5 6.5-.3.3-7.9 6.9-17 14.5-9.1 7.7-17 14.4-17.6 15-.6.5-2.9 2.5-5.2 4.3-2.3 1.9-5 4.2-6.2 5.2-1.2 1-3.9 3.3-6.2 5.2-9.9 7.9-23.5 19.1-25.7 21-10 8.5-53.2 40.4-71.7 52.8-5.3 3.6-10.1 7-10.8 7.5-.6.6-2.8 2.1-4.9 3.4-11 6.7 5.8-.1 24.8-10.1 15.4-8.1 103.9-52.3 116-58 9-4.2 45.6-21.4 61-28.7 9.7-4.7 20.3-9.5 50.5-23.3 15.7-7.1 32.2-14.7 36.8-16.9 4.6-2.1 8.5-3.9 8.7-3.9.2 0 3.2-1.3 6.7-2.9 3.5-1.6 22.5-10.2 42.3-19.1 42.2-19 47.1-21.4 64-31.4 7-4.2 13.1-7.6 13.6-7.6s.9-.4.9-.8c0-.5 1.2-1.4 2.7-2.1 4.7-2.2 27.7-17.7 35.8-24.2 18.4-14.8 37.3-36.9 45.8-53.5 5.6-10.9 8.6-19.2 10.3-28.9.3-1.7.9-4.7 1.4-6.8.9-4.1.6-30.6-.4-34.7-.3-1.4-.8-4.1-1-6.1-1.3-10-7.3-28-13.9-41.4-14.2-28.9-35.2-54.2-65.2-78.5-4.4-3.6-8.2-6.7-8.5-7-2-2-23.9-17.5-34-24.1-7.3-4.8-27.1-16.9-27.6-16.9-.3 0-2.1-1-4.2-2.3-12.2-7.7-56.6-29.9-79.7-40-4.4-1.9-10-4.4-12.5-5.5-2.5-1.1-10.6-4.6-18-7.7-7.4-3.2-14.8-6.3-16.5-7-6.4-2.7-26-10.7-50.5-20.5-69.4-27.8-102.7-42.5-151-66.7-36-18-56.4-28.9-85.4-45.5-6.6-3.7-12.3-6.8-12.8-6.8-.4 0-.8-.5-.8-1 0-.6-.4-1-.9-1-1.7 0-41.5-24.4-65-39.8-29.8-19.6-61.5-42.6-87.5-63.5-8.2-6.6-15.7-12.6-16.5-13.3-4.6-3.6-32.7-26.9-33.1-27.4-.3-.3-3.9-3.4-8-7-23-20-43.6-40.1-66.6-65.1C107.6 67.6 88.8 45.3 84 39c-1.9-2.5-3.9-5-4.5-5.6-.5-.6-2.1-2.6-3.5-4.4-2.4-3.2-9-11.5-15.3-19.4C56.8 4.8 52.3 0 51.5 0c-.3 0-.5.6-.5 1.3z"/></svg>